REM DIRINDEX 1\2,1\3,1\4
REM DIRNAME cjc153,folder01,folder02,folder03
TITLE ""
FILE "Track19.mp3" MP3
  TRACK 01 AUDIO
    TITLE "4:cjc153_1149"
    INDEX 01 00:00:00
  TRACK 02 AUDIO
    TITLE "0:"
    INDEX 01 00:01:73
  TRACK 03 AUDIO
    TITLE "2:cjc153_1150"
    INDEX 01 00:02:55
  TRACK 04 AUDIO
    TITLE "0:"
    INDEX 01 00:04:01
  TRACK 05 AUDIO
    TITLE "3:cjc153_1151"
    INDEX 01 00:04:35
  TRACK 06 AUDIO
    TITLE "0:"
    INDEX 01 00:05:56
  TRACK 07 AUDIO
    TITLE "2:cjc153_1152"
    INDEX 01 00:06:26
  TRACK 08 AUDIO
    TITLE "0:"
    INDEX 01 00:07:35
  TRACK 09 AUDIO
    TITLE "3:cjc153_1153"
    INDEX 01 00:07:64
  TRACK 10 AUDIO
    TITLE "0:"
    INDEX 01 00:09:04
  TRACK 11 AUDIO
    TITLE "2:cjc153_1154"
    INDEX 01 00:09:51
  TRACK 12 AUDIO
    TITLE "0:"
    INDEX 01 00:10:61
  TRACK 13 AUDIO
    TITLE "3:cjc153_1155"
    INDEX 01 00:11:19
  TRACK 14 AUDIO
    TITLE "0:"
    INDEX 01 00:12:34
  TRACK 15 AUDIO
    TITLE "2:cjc153_1156"
    INDEX 01 00:13:04
  TRACK 16 AUDIO
    TITLE "0:"
    INDEX 01 00:14:25
  TRACK 17 AUDIO
    TITLE "3:cjc153_1157"
    INDEX 01 00:14:54
  TRACK 18 AUDIO
    TITLE "0:"
    INDEX 01 00:16:08
  TRACK 19 AUDIO
    TITLE "2:cjc153_1158"
    INDEX 01 00:16:51
  TRACK 20 AUDIO
    TITLE "0:"
    INDEX 01 00:17:61
  TRACK 21 AUDIO
    TITLE "3:cjc153_1159"
    INDEX 01 00:18:17
  TRACK 22 AUDIO
    TITLE "0:"
    INDEX 01 00:19:34
  TRACK 23 AUDIO
    TITLE "2:cjc153_1160"
    INDEX 01 00:20:02
  TRACK 24 AUDIO
    TITLE "0:"
    INDEX 01 00:21:13
  TRACK 25 AUDIO
    TITLE "3:cjc153_1161"
    INDEX 01 00:21:45
  TRACK 26 AUDIO
    TITLE "0:"
    INDEX 01 00:22:62
  TRACK 27 AUDIO
    TITLE "2:cjc153_1162"
    INDEX 01 00:23:30
  TRACK 28 AUDIO
    TITLE "0:"
    INDEX 01 00:24:35
  TRACK 29 AUDIO
    TITLE "3:cjc153_1163"
    INDEX 01 00:24:67
  TRACK 30 AUDIO
    TITLE "0:"
    INDEX 01 00:25:74
  TRACK 31 AUDIO
    TITLE "2:cjc153_1164"
    INDEX 01 00:26:44
  TRACK 32 AUDIO
    TITLE "0:"
    INDEX 01 00:27:55
  TRACK 33 AUDIO
    TITLE "3:cjc153_1165"
    INDEX 01 00:28:13
  TRACK 34 AUDIO
    TITLE "0:"
    INDEX 01 00:29:29
  TRACK 35 AUDIO
    TITLE "2:cjc153_1166"
    INDEX 01 00:29:72
  TRACK 36 AUDIO
    TITLE "0:"
    INDEX 01 00:31:20
  TRACK 37 AUDIO
    TITLE "3:cjc153_1167"
    INDEX 01 00:31:53
  TRACK 38 AUDIO
    TITLE "0:"
    INDEX 01 00:33:05
  TRACK 39 AUDIO
    TITLE "2:cjc153_1168"
    INDEX 01 00:33:48
  TRACK 40 AUDIO
    TITLE "0:"
    INDEX 01 00:34:47
  TRACK 41 AUDIO
    TITLE "3:cjc153_1169"
    INDEX 01 00:35:04
  TRACK 42 AUDIO
    TITLE "0:"
    INDEX 01 00:36:11
  TRACK 43 AUDIO
    TITLE "2:cjc153_1170"
    INDEX 01 00:36:54
  TRACK 44 AUDIO
    TITLE "0:"
    INDEX 01 00:37:73
  TRACK 45 AUDIO
    TITLE "3:cjc153_1171"
    INDEX 01 00:38:31
  TRACK 46 AUDIO
    TITLE "0:"
    INDEX 01 00:39:56
  TRACK 47 AUDIO
    TITLE "2:cjc153_1172"
    INDEX 01 00:40:26
  TRACK 48 AUDIO
    TITLE "0:"
    INDEX 01 00:41:40
  TRACK 49 AUDIO
    TITLE "3:cjc153_1173"
    INDEX 01 00:41:73
  TRACK 50 AUDIO
    TITLE "0:"
    INDEX 01 00:43:13
  TRACK 51 AUDIO
    TITLE "2:cjc153_1174"
    INDEX 01 00:43:56
  TRACK 52 AUDIO
    TITLE "0:"
    INDEX 01 00:44:63
  TRACK 53 AUDIO
    TITLE "3:cjc153_1175"
    INDEX 01 00:45:20
  TRACK 54 AUDIO
    TITLE "0:"
    INDEX 01 00:46:31
  TRACK 55 AUDIO
    TITLE "2:cjc153_1176"
    INDEX 01 00:46:74
  TRACK 56 AUDIO
    TITLE "0:"
    INDEX 01 00:48:08
  TRACK 57 AUDIO
    TITLE "3:cjc153_1177"
    INDEX 01 00:48:40
  TRACK 58 AUDIO
    TITLE "0:"
    INDEX 01 00:49:49
  TRACK 59 AUDIO
    TITLE "2:cjc153_1178"
    INDEX 01 00:50:19
  TRACK 60 AUDIO
    TITLE "0:"
    INDEX 01 00:51:20
  TRACK 61 AUDIO
    TITLE "3:cjc153_1179"
    INDEX 01 00:51:52
  TRACK 62 AUDIO
    TITLE "0:"
    INDEX 01 00:52:61
  TRACK 63 AUDIO
    TITLE "2:cjc153_1180"
    INDEX 01 00:53:29
  TRACK 64 AUDIO
    TITLE "0:"
    INDEX 01 00:54:29
  TRACK 65 AUDIO
    TITLE "3:cjc153_1181"
    INDEX 01 00:54:62
  TRACK 66 AUDIO
    TITLE "0:"
    INDEX 01 00:55:67
  TRACK 67 AUDIO
    TITLE "2:cjc153_1182"
    INDEX 01 00:56:37
  TRACK 68 AUDIO
    TITLE "0:"
    INDEX 01 00:57:37
  TRACK 69 AUDIO
    TITLE "3:cjc153_1183"
    INDEX 01 00:57:68
  TRACK 70 AUDIO
    TITLE "0:"
    INDEX 01 00:58:73
  TRACK 71 AUDIO
    TITLE "2:cjc153_1184"
    INDEX 01 00:59:41
  TRACK 72 AUDIO
    TITLE "0:"
    INDEX 01 01:00:49
  TRACK 73 AUDIO
    TITLE "3:cjc153_1185"
    INDEX 01 01:01:03
  TRACK 74 AUDIO
    TITLE "0:"
    INDEX 01 01:02:10
  TRACK 75 AUDIO
    TITLE "2:cjc153_1186"
    INDEX 01 01:02:55
  TRACK 76 AUDIO
    TITLE "0:"
    INDEX 01 01:03:47
  TRACK 77 AUDIO
    TITLE "3:cjc153_1187"
    INDEX 01 01:04:07
  TRACK 78 AUDIO
    TITLE "0:"
    INDEX 01 01:05:07
  TRACK 79 AUDIO
    TITLE "2:cjc153_1188"
    INDEX 01 01:05:54
  TRACK 80 AUDIO
    TITLE "0:"
    INDEX 01 01:06:49
  TRACK 81 AUDIO
    TITLE "3:cjc153_1189"
    INDEX 01 01:07:10
  TRACK 82 AUDIO
    TITLE "0:"
    INDEX 01 01:08:11
  TRACK 83 AUDIO
    TITLE "2:cjc153_1190"
    INDEX 01 01:08:54
  TRACK 84 AUDIO
    TITLE "0:"
    INDEX 01 01:10:04
  TRACK 85 AUDIO
    TITLE "3:cjc153_1191"
    INDEX 01 01:10:39
  TRACK 86 AUDIO
    TITLE "0:"
    INDEX 01 01:11:74
  TRACK 87 AUDIO
    TITLE "2:cjc153_1192"
    INDEX 01 01:12:44
  TRACK 88 AUDIO
    TITLE "0:"
    INDEX 01 01:13:61
  TRACK 89 AUDIO
    TITLE "3:cjc153_1193"
    INDEX 01 01:14:19
  TRACK 90 AUDIO
    TITLE "0:"
    INDEX 01 01:15:39
  TRACK 91 AUDIO
    TITLE "2:cjc153_1194"
    INDEX 01 01:16:07
  TRACK 92 AUDIO
    TITLE "0:"
    INDEX 01 01:17:04
  TRACK 93 AUDIO
    TITLE "3:cjc153_1195"
    INDEX 01 01:17:35
  TRACK 94 AUDIO
    TITLE "0:"
    INDEX 01 01:18:37
  TRACK 95 AUDIO
    TITLE "2:cjc153_1196"
    INDEX 01 01:19:05
  TRACK 96 AUDIO
    TITLE "0:"
    INDEX 01 01:20:02
  TRACK 97 AUDIO
    TITLE "3:cjc153_1197"
    INDEX 01 01:20:34
  TRACK 98 AUDIO
    TITLE "0:"
    INDEX 01 01:21:37
  TRACK 99 AUDIO
    TITLE "2:cjc153_1198"
    INDEX 01 01:22:05
  TRACK 100 AUDIO
    TITLE "0:"
    INDEX 01 01:23:16
  TRACK 101 AUDIO
    TITLE "3:cjc153_1199"
    INDEX 01 01:23:48
  TRACK 102 AUDIO
    TITLE "0:"
    INDEX 01 01:24:55
  TRACK 103 AUDIO
    TITLE "2:cjc153_1200"
    INDEX 01 01:25:27
  TRACK 104 AUDIO
    TITLE "0:"
    INDEX 01 01:26:25
  TRACK 105 AUDIO
    TITLE "3:cjc153_1201"
    INDEX 01 01:26:60
  TRACK 106 AUDIO
    TITLE "0:"
    INDEX 01 01:27:61
  TRACK 107 AUDIO
    TITLE "2:cjc153_1202"
    INDEX 01 01:28:29
  TRACK 108 AUDIO
    TITLE "0:"
    INDEX 01 01:29:41
  TRACK 109 AUDIO
    TITLE "3:cjc153_1203"
    INDEX 01 01:29:72
  TRACK 110 AUDIO
    TITLE "0:"
    INDEX 01 01:31:08
  TRACK 111 AUDIO
    TITLE "2:cjc153_1204"
    INDEX 01 01:31:55
  TRACK 112 AUDIO
    TITLE "0:"
    INDEX 01 01:32:53
  TRACK 113 AUDIO
    TITLE "3:cjc153_1205"
    INDEX 01 01:33:09
  TRACK 114 AUDIO
    TITLE "0:"
    INDEX 01 01:34:14
  TRACK 115 AUDIO
    TITLE "2:cjc153_1206"
    INDEX 01 01:34:59
  TRACK 116 AUDIO
    TITLE "0:"
    INDEX 01 01:35:65
  TRACK 117 AUDIO
    TITLE "3:cjc153_1207"
    INDEX 01 01:36:23
  TRACK 118 AUDIO
    TITLE "0:"
    INDEX 01 01:37:28
  TRACK 119 AUDIO
    TITLE "2:cjc153_1208"
    INDEX 01 01:38:00
  TRACK 120 AUDIO
    TITLE "0:"
    INDEX 01 01:39:08
  TRACK 121 AUDIO
    TITLE "3:cjc153_1209"
    INDEX 01 01:39:39
  TRACK 122 AUDIO
    TITLE "0:"
    INDEX 01 01:40:46
  TRACK 123 AUDIO
    TITLE "2:cjc153_1210"
    INDEX 01 01:41:14
  TRACK 124 AUDIO
    TITLE "0:"
    INDEX 01 01:42:26
  TRACK 125 AUDIO
    TITLE "3:cjc153_1211"
    INDEX 01 01:42:57
  TRACK 126 AUDIO
    TITLE "0:"
    INDEX 01 01:43:70
  TRACK 127 AUDIO
    TITLE "2:cjc153_1212"
    INDEX 01 01:44:40
  TRACK 128 AUDIO
    TITLE "0:"
    INDEX 01 01:45:34
  TRACK 129 AUDIO
    TITLE "3:cjc153_1213"
    INDEX 01 01:45:67
  TRACK 130 AUDIO
    TITLE "0:"
    INDEX 01 01:46:68
  TRACK 131 AUDIO
    TITLE "2:cjc153_1214"
    INDEX 01 01:47:40
  TRACK 132 AUDIO
    TITLE "0:"
    INDEX 01 01:48:56
  TRACK 133 AUDIO
    TITLE "3:cjc153_1215"
    INDEX 01 01:49:12
  TRACK 134 AUDIO
    TITLE "0:"
    INDEX 01 01:50:25
  TRACK 135 AUDIO
    TITLE "2:cjc153_1216"
    INDEX 01 01:50:72
  TRACK 136 AUDIO
    TITLE "0:"
    INDEX 01 01:52:04
  TRACK 137 AUDIO
    TITLE "3:cjc153_1217"
    INDEX 01 01:52:34
  TRACK 138 AUDIO
    TITLE "0:"
    INDEX 01 01:53:41
  TRACK 139 AUDIO
    TITLE "2:cjc153_1218"
    INDEX 01 01:54:05
  TRACK 140 AUDIO
    TITLE "0:"
    INDEX 01 01:55:11
  TRACK 141 AUDIO
    TITLE "3:cjc153_1219"
    INDEX 01 01:55:38
  TRACK 142 AUDIO
    TITLE "0:"
    INDEX 01 01:56:47
  TRACK 143 AUDIO
    TITLE "2:cjc153_1220"
    INDEX 01 01:57:17
  TRACK 144 AUDIO
    TITLE "0:"
    INDEX 01 01:58:44
  TRACK 145 AUDIO
    TITLE "3:cjc153_1221"
    INDEX 01 01:59:01
  TRACK 146 AUDIO
    TITLE "0:"
    INDEX 01 02:00:29
